<?xml version="1.0" standalone="no"?>
<!DOCTYPE svg PUBLIC "-//W3C//DTD SVG 20010904//EN"
 "http://www.w3.org/TR/2001/REC-SVG-20010904/DTD/svg10.dtd">
<svg version="1.0" xmlns="http://www.w3.org/2000/svg"
 width="340.000000pt" height="340.000000pt" viewBox="0 0 340.000000 340.000000"
 preserveAspectRatio="xMidYMid meet">
<metadata>
Created by potrace 1.11, written by Peter Selinger 2001-2013
</metadata>
<g transform="translate(0.000000,340.000000) scale(0.100000,-0.100000)"
fill="#000000" stroke="none">
<path d="M0 1700 l0 -1700 1700 0 1700 0 0 1700 0 1700 -1700 0 -1700 0 0
-1700z m1524 1084 c159 -30 402 -125 503 -196 79 -55 130 -94 189 -145 75 -64
329 -345 370 -408 46 -72 93 -221 110 -350 34 -256 -48 -550 -215 -773 -230
-304 -572 -466 -1016 -479 -102 -3 -180 -1 -215 7 -30 6 -86 15 -125 20 -81
10 -274 57 -295 71 -13 8 -11 13 9 29 26 22 93 27 150 10 19 -5 81 -13 137
-16 88 -6 105 -4 119 10 9 9 27 16 39 16 61 0 294 147 397 251 159 159 252
371 233 528 -20 164 -158 371 -296 442 -50 25 -58 24 -53 -8 11 -73 14 -143 7
-143 -5 0 -23 42 -39 92 l-30 93 -84 28 c-46 15 -100 30 -120 33 -35 6 -36 5
-65 -52 l-29 -59 -57 -3 c-64 -3 -78 12 -28 30 37 13 46 41 27 95 l-14 41 38
17 c48 22 66 59 75 156 14 164 -46 366 -130 433 -36 29 -43 31 -115 29 -135
-2 -347 -78 -498 -179 -93 -62 -220 -182 -270 -254 -93 -137 -111 -217 -81
-370 11 -58 27 -112 34 -121 16 -18 18 -29 5 -29 -10 0 -83 103 -95 135 -16
40 -24 145 -15 186 22 98 172 310 326 461 180 177 375 290 607 353 173 47 331
53 510 19z m841 -104 c497 -55 830 -215 954 -457 42 -83 21 -165 -55 -213 -59
-37 -82 -38 -329 -10 -216 25 -308 39 -315 48 -3 4 -24 34 -45 67 -67 100
-300 323 -486 463 -31 23 -64 51 -73 61 -17 18 -16 20 26 34 51 18 193 21 323
7z m-1280 -310 c20 -22 39 -97 56 -215 13 -96 5 -161 -21 -175 -33 -18 -179
-41 -238 -38 l-57 3 113 58 c69 35 112 63 112 73 0 33 -93 115 -175 155 -142
68 -222 51 -348 -78 -67 -69 -177 -207 -177 -223 0 -4 51 -11 113 -14 121 -8
217 -23 217 -35 0 -4 -72 -36 -160 -69 -140 -54 -168 -62 -227 -62 -78 0 -88
5 -103 45 -13 33 -1 103 29 170 21 48 136 173 214 233 76 59 210 127 307 156
109 32 116 33 231 35 84 1 98 -2 114 -19z m-315 -190 c50 -26 70 -78 51 -139
-16 -55 -52 -81 -110 -81 -55 0 -82 17 -105 64 -27 57 -21 93 23 137 45 46 80
50 141 19z m664 -391 c25 -17 50 -39 55 -48 5 -9 11 -71 15 -137 8 -133 -5
-213 -46 -286 -41 -73 -115 -75 -152 -3 -17 33 -21 63 -24 191 l-4 152 87 -35
c47 -19 89 -32 93 -28 3 3 8 34 10 68 5 77 -2 85 -87 93 -70 8 -95 21 -85 47
11 30 82 22 138 -14z m282 -156 c43 -63 99 -203 115 -287 33 -178 -24 -366
-150 -490 -33 -33 -63 -58 -66 -55 -3 3 23 60 58 128 l62 122 0 157 0 157 -49
100 c-42 85 -49 108 -49 157 1 99 18 101 79 11z m-70 -145 c45 -74 61 -124 69
-225 9 -103 -6 -173 -61 -292 -54 -115 -90 -166 -108 -152 -10 9 -2 32 35 108
101 203 114 368 43 518 -14 30 -38 67 -54 82 -35 32 -30 46 10 31 20 -7 41
-29 66 -70z m-1257 -288 c124 -35 182 -71 264 -168 l27 -32 98 0 c106 0 242
-26 319 -60 l47 -21 -36 -22 c-21 -12 -92 -76 -160 -143 -139 -136 -169 -151
-279 -141 -69 6 -116 32 -186 105 -95 100 -133 185 -133 301 0 37 -9 95 -20
131 -21 70 -21 70 -17 70 1 0 35 -9 76 -20z m1157 -392 c9 -14 -88 -108 -161
-156 -27 -18 -79 -42 -115 -53 -57 -18 -80 -20 -193 -14 -70 4 -129 10 -131
14 -2 3 39 7 92 8 53 2 121 8 152 14 89 18 208 80 270 142 57 57 74 65 86 45z"/>
<path d="M1197 2665 c-21 -7 -41 -15 -44 -18 -2 -3 18 -56 45 -119 28 -62 55
-138 61 -168 21 -113 34 -254 28 -330 l-5 -78 75 -7 c131 -12 239 -61 396
-178 74 -55 121 -94 305 -250 199 -169 249 -187 375 -133 52 23 49 4 -13 -69
-27 -32 -78 -101 -112 -152 -35 -51 -66 -92 -69 -93 -4 0 -10 23 -13 52 -12
85 -61 174 -144 256 -40 39 -77 72 -81 72 -5 0 4 -35 19 -77 15 -43 37 -123
50 -178 43 -191 64 -225 141 -226 54 0 100 13 138 40 19 14 67 91 144 233 63
117 118 223 122 236 6 21 3 21 -43 -12 -79 -57 -88 -49 -41 42 45 88 58 163
48 280 -9 99 -38 152 -167 307 -319 384 -460 482 -804 559 -134 30 -343 36
-411 11z m326 -56 c167 -39 326 -117 522 -254 91 -64 173 -140 163 -150 -3 -3
-32 3 -64 14 -31 10 -63 17 -70 14 -7 -2 -35 -41 -62 -86 -55 -89 -125 -174
-204 -248 -45 -42 -48 -48 -38 -73 5 -15 10 -30 10 -32 0 -8 -69 34 -103 62
l-28 23 28 17 c161 97 213 147 269 258 25 51 34 82 34 119 0 48 -3 54 -50 99
-59 57 -205 130 -366 184 -122 41 -144 50 -144 64 0 13 -1 13 103 -11z m14
-110 c112 -36 218 -82 246 -107 52 -46 74 -173 43 -247 -43 -101 -120 -148
-246 -149 -86 0 -130 9 -130 27 0 51 110 178 177 203 24 9 43 20 43 24 0 4
-23 22 -50 40 -56 36 -128 112 -172 179 -46 73 -46 73 89 30z m651 -355 c161
-90 282 -281 282 -445 0 -83 -81 -209 -145 -225 -67 -17 -182 39 -297 145 -89
82 -152 174 -151 219 1 23 25 70 84 160 90 139 125 182 147 182 8 0 44 -16 80
-36z"/>
<path d="M2114 2073 c-12 -50 -64 -121 -113 -152 -27 -17 -56 -40 -66 -51 -18
-19 -16 -22 57 -93 41 -41 109 -102 152 -136 88 -70 108 -74 196 -38 l55 22
-3 90 c-3 73 -9 101 -31 150 -33 71 -83 134 -154 193 -61 49 -84 53 -93 15z
m94 -154 c103 -110 124 -169 80 -216 -27 -29 -37 -29 -99 3 -64 32 -139 108
-139 139 0 18 84 133 98 135 2 0 29 -28 60 -61z"/>
<path d="M1964 1041 c-17 -10 -53 -45 -80 -77 -27 -32 -69 -80 -93 -106 -24
-27 -42 -50 -40 -53 3 -2 39 20 81 49 42 29 97 63 122 76 43 23 46 24 78 8
144 -68 173 -213 55 -282 -58 -34 -108 -51 -224 -75 -188 -39 -339 -47 -389
-20 -19 10 -35 6 -111 -30 l-88 -41 90 0 c229 0 442 35 619 103 92 34 139 62
196 114 58 51 53 77 -27 167 -24 26 -59 79 -79 117 -40 76 -55 83 -110 50z"/>
<path d="M1927 838 c-77 -56 -287 -220 -287 -224 0 -10 111 10 240 41 209 52
210 52 190 123 -10 40 -58 92 -85 92 -7 0 -33 -15 -58 -32z"/>
<path d="M2178 2648 c-34 -12 -35 -18 -3 -52 31 -34 44 -33 52 4 3 17 10 33
14 36 5 3 9 9 9 15 0 12 -37 10 -72 -3z"/>
<path d="M2280 2595 c0 -3 19 -29 43 -58 24 -29 74 -100 112 -158 86 -132 168
-233 210 -259 24 -15 50 -20 103 -20 77 0 96 11 129 73 31 60 -21 191 -109
274 -122 114 -219 153 -384 153 -57 0 -104 -2 -104 -5z m275 -67 c28 -10 85
-43 128 -74 104 -74 147 -145 147 -243 0 -57 -12 -71 -64 -71 -68 0 -116 32
-193 128 -81 101 -97 128 -83 137 5 3 26 -17 46 -45 20 -27 41 -50 46 -50 6 0
35 -22 64 -50 43 -41 59 -50 88 -50 26 0 36 4 36 15 0 55 -110 175 -213 234
-32 18 -59 32 -60 30 -2 -2 -11 -22 -21 -44 l-18 -39 -18 24 c-11 14 -29 45
-41 69 -18 36 -19 45 -8 52 19 12 103 0 164 -23z"/>
<path d="M2860 2466 c0 -2 15 -22 34 -45 70 -83 85 -195 37 -277 -19 -32 -19
-34 -3 -34 10 0 65 16 122 35 57 19 123 35 145 35 23 0 45 3 48 6 12 12 -53
83 -136 149 -98 79 -247 158 -247 131z"/>
<path d="M1333 1507 c-7 -12 6 -117 18 -149 23 -59 71 -42 94 34 8 28 15 66
15 84 l0 32 -61 4 c-34 1 -63 -1 -66 -5z"/>
<path d="M410 1076 c0 -99 50 -225 100 -251 49 -25 78 -20 97 19 13 29 14 39
3 65 -13 33 -116 142 -167 179 l-33 23 0 -35z"/>
<path d="M754 906 c-43 -19 -95 -88 -101 -135 -4 -32 -1 -41 18 -55 14 -9 43
-16 71 -16 46 0 51 3 148 92 55 50 99 97 97 102 -8 25 -183 33 -233 12z"/>
</g>
</svg>
